<?xml version="1.0" encoding="UTF-8" standalone="no"?>
<!-- Created with Inkscape (http://www.inkscape.org/) -->

<svg
   xmlns:dc="http://purl.org/dc/elements/1.1/"
   xmlns:cc="http://creativecommons.org/ns#"
   xmlns:rdf="http://www.w3.org/1999/02/22-rdf-syntax-ns#"
   xmlns:svg="http://www.w3.org/2000/svg"
   xmlns="http://www.w3.org/2000/svg"
   version="1.1"
   width="395.13596"
   height="706.45917"
   id="svg3878">
  <defs
     id="defs3880" />
  <metadata
     id="metadata3883">
    <rdf:RDF>
      <cc:Work
         rdf:about="">
        <dc:format>image/svg+xml</dc:format>
        <dc:type
           rdf:resource="http://purl.org/dc/dcmitype/StillImage" />
        <dc:title></dc:title>
      </cc:Work>
    </rdf:RDF>
  </metadata>
  <g
     transform="translate(-177.43199,-159.13259)"
     id="layer1">
    <g
       transform="translate(1585.485,-638.77042)"
       id="g3829"
       style="stroke:#0060c0;stroke-opacity:1">
      <path
         d="m -1310.1678,945.28601 c -11.1117,35.35534 -19.7331,96.70509 -17.1726,145.46199 1.5208,28.9589 4.5667,59.8127 19.1929,84.8528 12.1438,20.7902 21.6811,32.7466 43.9416,41.9213 27.1128,11.1747 68.2508,12.9832 97.4797,10.6066 24.3543,-1.9802 50.949,-6.1684 72.2259,-18.1828 12.032,-6.7941 20.9316,-15.2724 27.7792,-27.274 8.8707,-15.5473 12.6009,-33.8006 15.1523,-51.5178 1.7758,-12.3314 1.3892,-24.9948 0,-37.3757 -0.8471,-7.5493 -0.917,-15.8498 -5.0508,-22.2233 -0.9161,-1.4125 -5.3033,-5.0508 -5.3033,-5.0508"
         id="path3020"
         style="fill:none;stroke:#0060c0;stroke-width:4;stroke-linecap:round;stroke-linejoin:round;stroke-miterlimit:4;stroke-opacity:1;stroke-dasharray:none" />
      <path
         d="m -1132.2076,1076.4272 c 0,0 12.4395,6.8949 19.3258,7.908 11.6397,1.7123 24.5119,1.6709 35.1314,-3.3928 8.4817,-4.0444 15.3166,-11.8214 19.7688,-20.0964 3.3275,-6.1845 4.1553,-13.5867 4.3925,-20.6056 0.2831,-8.3791 1.1302,-17.9553 -3.5714,-24.8968 -4.0715,-6.0113 -8.545,-10.4319 -18.8739,-10.8718 -9.3751,-0.3992 -20.7456,0.1689 -33.6182,1.4234 -6.3232,0.6162 -13.7292,2.1023 -17.6776,7.071 -8.266,10.4021 -5.0478,26.1482 -6.0609,39.396 -0.4108,5.3718 -0.5309,10.8012 0,16.1624 0.6767,6.8343 1.1057,13.9941 4.0406,20.2031 2.0451,4.3266 7.4824,6.6046 9.0913,11.1117 3.396,9.5136 4.4753,21.2484 0,30.3045 -3.1925,6.4603 -10.488,10.4405 -17.1726,13.132 -16.6602,6.7082 -37.2229,13.5696 -53.538,6.0609 -11.4531,-5.2711 -17.515,-19.2615 -21.2132,-31.3147 -2.0741,-6.76 -0.7836,-14.1857 0,-21.2132 1.1858,-10.6351 5.9497,-20.6726 7.071,-31.3147 1.4556,-13.8141 5.9854,-29.3878 -0.5051,-41.6688 -4.4331,-8.388 -13.8844,-15.329 -23.3201,-16.3178 -16.9288,-1.7741 -29.1665,-2.0706 -44.3019,-1.0969 -9.3914,0.6042 -20.1899,5.5282 -25.312,13.6266 -8.8309,13.9623 -9.1492,34.3629 -2.5254,49.4975 4.2176,9.6369 14.431,16.4124 24.2437,20.203 14.7759,5.7078 31.7636,4.0177 47.4772,2.0203 4.1898,-0.5326 8.2716,-1.9525 12.1218,-3.6887 2.9274,-1.32 8.2038,-5.0508 8.2038,-5.0508"
         id="path3022"
         style="fill:none;stroke:#0060c0;stroke-width:4;stroke-linecap:round;stroke-linejoin:round;stroke-miterlimit:4;stroke-opacity:1;stroke-dasharray:none" />
      <path
         d="m -1209.2857,1132.3622 c -8.4815,13.517 -17.2762,20.0467 -28.5714,26.4286 -7.4461,4.2071 -16.1438,6.1895 -24.6429,7.1428 -11.0586,1.2405 -22.8138,1.6903 -33.3263,-1.959 -8.273,-2.8719 -21.5406,-15.0402 -21.5406,-15.0402"
         id="path3024"
         style="fill:none;stroke:#0060c0;stroke-width:4;stroke-linecap:round;stroke-linejoin:round;stroke-miterlimit:4;stroke-opacity:1;stroke-dasharray:none" />
      <path
         d="m -1127.1429,1138.7908 c 0,0 6.1019,8.1992 10,11.4285 3.6162,2.9958 7.7049,5.6078 12.1429,7.1429 8.4012,2.906 17.5503,4.0211 26.4285,3.5714 6.1136,-0.3097 10.7679,-0.3876 17.8572,-4.2857"
         id="path3026"
         style="fill:none;stroke:#0060c0;stroke-width:4;stroke-linecap:round;stroke-linejoin:round;stroke-miterlimit:4;stroke-opacity:1;stroke-dasharray:none" />
      <path
         d="m -1243.5714,1165.2193 c 0,0 13.194,9.0551 20.7143,11.4286 14.8439,4.685 32.8895,6.0692 48.4488,6.5152 14.2977,0.4099 26.717,-1.3728 40.8369,-3.6581 15.1642,-2.4543 23.7385,-5.8678 34.2857,-17.1428"
         id="path3028"
         style="fill:none;stroke:#0060c0;stroke-width:4;stroke-linecap:round;stroke-linejoin:round;stroke-miterlimit:4;stroke-opacity:1;stroke-dasharray:none" />
      <path
         d="m -1058.8239,1011.5687 c 0,0 1.49,-14.0484 0.9668,-21.17606 -0.3897,-5.30969 -1.854,-15.24172 -2.6047,-20.51251 -0.9787,-6.87226 -2.3953,-18.94652 -2.3953,-18.94652"
         id="path3030"
         style="fill:none;stroke:#0060c0;stroke-width:4;stroke-linecap:round;stroke-linejoin:round;stroke-miterlimit:4;stroke-opacity:1;stroke-dasharray:none" />
      <path
         d="m -1320.26,984.88756 c 0,0 23.2959,-6.59497 35.2384,-8.3593 29.2081,-4.31504 58.8966,-4.65918 88.4136,-5.34954 28.8641,-0.67509 57.7771,-0.35797 86.608,1.18346 11.9761,0.6403 23.9374,1.74872 35.8236,3.34715 5.5504,0.74639 16.5467,2.91172 16.5467,2.91172"
         id="path3800"
         style="fill:none;stroke:#0060c0;stroke-width:4;stroke-linecap:butt;stroke-linejoin:miter;stroke-miterlimit:4;stroke-opacity:1;stroke-dasharray:none" />
      <path
         d="m -1323.5714,1000.2193 c 0,0 -6.4885,-6.39031 -10.7143,-7.14283 -6.0266,-1.07318 -13.0641,0.47796 -17.8571,4.28571 -5.4192,4.30522 -7.3621,11.92302 -9.2858,18.57142 -3.9905,13.7913 -4.6009,28.5037 -4.2857,42.8572 0.4384,19.9626 6.9646,39.3831 8.5715,59.2857 1.0923,13.5295 -2.5201,27.5317 0.7142,40.7143 2.2835,9.3071 4.8167,20.5002 12.8572,25.7142 4.599,2.9823 11.1156,2.0624 16.4286,0.7143 6.7284,-1.7072 17.8571,-10.7143 17.8571,-10.7143"
         id="path3802"
         style="fill:none;stroke:#0060c0;stroke-width:4;stroke-linecap:butt;stroke-linejoin:miter;stroke-miterlimit:4;stroke-opacity:1;stroke-dasharray:none" />
      <path
         d="m -1056.0714,997.00504 c 0,0 6.6328,-5.59912 10.7143,-6.42857 6.715,-1.36461 14.8713,-1.24879 20.3571,2.85714 5.5451,4.15031 7.0436,12.17289 8.5714,18.92859 2.6789,11.8461 1.0498,24.288 0.7143,36.4286 -0.2638,9.5469 -1.1097,19.0769 -2.1428,28.5714 -1.0927,10.0423 -3.469,19.9315 -4.2858,30 -0.9628,11.8682 1.248,23.9699 -0.7142,35.7143 -1.6132,9.6556 -1.4833,21.6749 -8.9898,27.9586 -3.9564,3.3118 -10.5564,4.0059 -15.3393,2.0711 -4.9863,-2.0171 -9.9926,-12.6702 -9.9926,-12.6702"
         id="path3804"
         style="fill:none;stroke:#0060c0;stroke-width:4;stroke-linecap:butt;stroke-linejoin:miter;stroke-miterlimit:4;stroke-opacity:1;stroke-dasharray:none" />
      <path
         d="m -1363.5714,1078.7908 c 0,0 -10.5906,13.6799 -14.2858,21.4286 -6.5478,13.7307 -9.8895,28.8117 -13.5714,43.5714 -4.3401,17.3984 -7.7159,35.0716 -10,52.8571 -1.7776,13.8416 -2.1458,27.831 -2.8645,41.7678 -0.7059,13.6864 -1.1843,27.3867 -1.4212,41.0893 -0.3293,19.0448 -0.5595,38.1035 0,57.1429 0.4764,16.2115 -1.3311,32.9031 2.8572,48.5714 0.8249,3.0861 2.3327,6.0437 4.2857,8.5715 3.0948,4.0057 6.6901,8.2196 11.4286,10 8.9153,3.3498 19.0716,-0.6751 28.5714,0 10.0761,0.7161 20.0991,2.2827 30,4.2857 9.1699,1.8551 17.983,5.2384 27.1428,7.1428 12.2644,2.5498 24.7158,7.29 37.1429,5.7143 10.7933,-1.3685 22.2868,-5.1842 30,-12.8571 8.4669,-8.4227 10.4434,-21.5494 14.2857,-32.8572 2.5267,-7.436 5.6702,-15.0037 5.7143,-22.8571 0.058,-10.2794 -0.9818,-21.7714 -7.1429,-30 -4.6021,-6.1464 -12.6634,-9.1632 -20,-11.4286 -11.4112,-3.5235 -35.7142,-2.8571 -35.7142,-2.8571"
         id="path3806"
         style="fill:none;stroke:#0060c0;stroke-width:4;stroke-linecap:round;stroke-linejoin:round;stroke-miterlimit:4;stroke-opacity:1;stroke-dasharray:none" />
      <path
         d="m -1300.0663,1191.7632 c 0,0 -4.2742,14.696 -5.5559,22.2234 -1.5326,9.0007 -2.1041,18.1536 -2.5254,27.2741 -0.3962,8.5772 -0.1191,17.1734 10e-5,25.7589 0.084,6.0627 0.505,18.1827 0.505,18.1827"
         id="path3808"
         style="fill:none;stroke:#0060c0;stroke-width:4;stroke-linecap:round;stroke-linejoin:round;stroke-miterlimit:4;stroke-opacity:1;stroke-dasharray:none" />
      <path
         d="m -1335.9267,1302.88 c 0,0 12.2371,-8.7659 18.6878,-12.6269 3.1017,-1.8565 6.3729,-3.415 9.5964,-5.0508 7.5202,-3.8162 14.3266,-10.3866 22.7285,-11.1116 5.4145,-0.4672 11.0378,1.6829 15.6573,4.5457 4.8614,3.0127 8.4577,7.8593 11.6168,12.6269 2.2473,3.3916 4.0483,7.1685 5.0508,11.1116 0.5823,2.2902 0.505,7.0711 0.505,7.0711"
         id="path3811"
         style="fill:none;stroke:#0060c0;stroke-width:4;stroke-linecap:round;stroke-linejoin:round;stroke-miterlimit:4;stroke-opacity:1;stroke-dasharray:none" />
      <path
         d="m -1089.9546,1207.9257 c 0,0 2.7463,13.3993 3.0305,20.203 0.3117,7.4631 -1.4645,22.3608 -1.4645,22.3608"
         id="path3813"
         style="fill:none;stroke:#0060c0;stroke-width:4;stroke-linecap:round;stroke-linejoin:round;stroke-miterlimit:4;stroke-opacity:1;stroke-dasharray:none" />
      <path
         d="m -1055.6094,1274.5957 c 0,0 -16.8486,-21.8439 -29.2944,-24.2436 -3.2532,-0.6272 -7.0048,0.8159 -9.4643,3.0357 -6.0018,5.417 -7.0753,14.581 -9.7286,22.2181 -2.7272,7.8498 -6.3134,24.1173 -6.3134,24.1173"
         id="path3815"
         style="fill:none;stroke:#0060c0;stroke-width:4;stroke-linecap:round;stroke-linejoin:round;stroke-miterlimit:4;stroke-opacity:1;stroke-dasharray:none" />
      <path
         d="m -1093.6164,1297.4504 c 0,0 -17.9692,0.7567 -23.9911,6.4397 -5.9338,5.6 -6.402,15.1789 -7.7024,23.2336 -1.9856,12.2993 -0.6007,24.9316 0,37.3756 0.5057,10.4748 -1.928,22.0739 3.0304,31.3147 3.2821,6.1167 9.7594,10.4513 16.1625,13.132 11.2503,4.71 24.2254,5.211 36.3655,4.0406 11.2367,-1.0833 23.9096,-2.5768 32.3248,-10.1015 6.8557,-6.1302 9.2193,-16.2538 11.1117,-25.2538 2.7022,-12.8509 -1.4329,-26.3423 0,-39.3959 1.0162,-9.2576 4.8796,-18.0363 6.0609,-27.2742 2.3933,-18.7158 2.8011,-37.7165 2.0203,-56.5685 -0.5894,-14.2298 -3.4225,-28.2778 -5.0507,-42.4264 -1.7429,-15.1456 -5.0508,-45.4569 -5.0508,-45.4569"
         id="path3817"
         style="fill:none;stroke:#0060c0;stroke-width:4;stroke-linecap:round;stroke-linejoin:round;stroke-miterlimit:4;stroke-opacity:1;stroke-dasharray:none" />
      <path
         d="m -1355.7143,1405.2193 c 0,0 -5.3658,36.0938 -5.7143,54.2857 -0.2742,14.3148 2.8572,42.8572 2.8572,42.8572 l 298.5714,0 c 0,0 -0.6092,-41.9154 -1.4286,-62.8572 -0.3357,-8.5781 -1.4285,-25.7142 -1.4285,-25.7142"
         id="path3819"
         style="fill:none;stroke:#0060c0;stroke-width:4;stroke-linecap:round;stroke-linejoin:round;stroke-miterlimit:4;stroke-opacity:1;stroke-dasharray:none" />
      <path
         d="m -1368.5714,910.93361 c 0,0 71.3872,-4.89398 107.1428,-5.71428 64.2706,-1.47448 128.6877,-2.46484 192.8572,1.42857 16.7444,1.01595 50,5.71428 50,5.71428 l 1.4285,37.14286 c 0,0 -61.896,-2.2497 -92.8571,-2.85714 -56.1817,-1.10226 -112.3901,-2.54883 -168.5714,-1.42857 -29.5525,0.58928 -88.5714,4.28571 -88.5714,4.28571 z"
         id="path3821"
         style="fill:none;stroke:#0060c0;stroke-width:4;stroke-linecap:round;stroke-linejoin:round;stroke-miterlimit:4;stroke-opacity:1;stroke-dasharray:none" />
      <path
         d="m -1296.0257,904.87991 c 24.2437,-45.45686 38.4796,-64.6284 67.6802,-86.87312 11.8885,-9.05651 26.6118,-15.12731 41.4163,-17.17259 14.108,-1.94906 29.5803,-1.09845 42.4264,5.05076 19.5442,9.3555 33.6354,27.99688 46.467,45.45687 11.8606,16.13876 27.2741,53.53808 27.2741,53.53808"
         id="path3823"
         style="fill:none;stroke:#0060c0;stroke-width:4;stroke-linecap:round;stroke-linejoin:round;stroke-miterlimit:4;stroke-opacity:1;stroke-dasharray:none" />
    </g>
  </g>
</svg>
