<?xml version="1.0" encoding="UTF-8" standalone="no"?>
<!-- Created with Inkscape (http://www.inkscape.org/) -->

<svg
   xmlns:dc="http://purl.org/dc/elements/1.1/"
   xmlns:cc="http://creativecommons.org/ns#"
   xmlns:rdf="http://www.w3.org/1999/02/22-rdf-syntax-ns#"
   xmlns:svg="http://www.w3.org/2000/svg"
   xmlns="http://www.w3.org/2000/svg"
   xmlns:xlink="http://www.w3.org/1999/xlink"
   xmlns:sodipodi="http://sodipodi.sourceforge.net/DTD/sodipodi-0.dtd"
   xmlns:inkscape="http://www.inkscape.org/namespaces/inkscape"
   width="512"
   height="267"
   id="svg3035"
   version="1.1"
   inkscape:version="0.48.4 r9939"
   sodipodi:docname="新規ドキュメント 2">
  <defs
     id="defs3037">
    <linearGradient
       inkscape:collect="always"
       xlink:href="#linearGradient3883"
       id="linearGradient3889"
       x1="1420"
       y1="482.36218"
       x2="1490"
       y2="152.36218"
       gradientUnits="userSpaceOnUse"
       spreadMethod="pad" />
    <linearGradient
       id="linearGradient3883">
      <stop
         id="stop3893"
         offset="0"
         style="stop-color:#0042ff;stop-opacity:0.74901962;" />
      <stop
         id="stop3891"
         offset="1"
         style="stop-color:#0080ff;stop-opacity:0.49803922;" />
      <stop
         style="stop-color:#0000ff;stop-opacity:0;"
         offset="1"
         id="stop3887" />
    </linearGradient>
    <linearGradient
       gradientTransform="translate(-1076,196.48718)"
       y2="152.36218"
       x2="1490"
       y1="482.36218"
       x1="1420"
       spreadMethod="pad"
       gradientUnits="userSpaceOnUse"
       id="linearGradient3033"
       xlink:href="#linearGradient3883"
       inkscape:collect="always" />
  </defs>
  <sodipodi:namedview
     id="base"
     pagecolor="#ffffff"
     bordercolor="#666666"
     borderopacity="1.0"
     inkscape:pageopacity="0.0"
     inkscape:pageshadow="2"
     inkscape:zoom="0.98994949"
     inkscape:cx="282.56394"
     inkscape:cy="104.52276"
     inkscape:document-units="px"
     inkscape:current-layer="layer1"
     showgrid="false"
     fit-margin-top="0"
     fit-margin-left="0"
     fit-margin-right="0"
     fit-margin-bottom="0"
     inkscape:window-width="1366"
     inkscape:window-height="706"
     inkscape:window-x="-8"
     inkscape:window-y="-8"
     inkscape:window-maximized="1" />
  <metadata
     id="metadata3040">
    <rdf:RDF>
      <cc:Work
         rdf:about="">
        <dc:format>image/svg+xml</dc:format>
        <dc:type
           rdf:resource="http://purl.org/dc/dcmitype/StillImage" />
        <dc:title></dc:title>
      </cc:Work>
    </rdf:RDF>
  </metadata>
  <g
     inkscape:label="レイヤー 1"
     inkscape:groupmode="layer"
     id="layer1"
     transform="translate(-119,-378.86218)">
    <path
       inkscape:connector-curvature="0"
       style="fill:url(#linearGradient3033);fill-opacity:1;stroke:none;display:inline"
       d="m 254,378.86218 -6.25,25 -66.25,0 -7.5,30 180,0 7.5,-30 -73.75,0 6.25,-25 -40,0 z m 277,11.96875 c -10,23 -33,55 -50,70 l 20,10 c 6.3988,-5.11903 12.8002,-10.89468 19.0312,-17.15625 1.6596,13.28572 4.2157,22.40522 8.5313,30.28125 -9.6284,4.56272 -20.3713,6.875 -32.5625,6.875 l -7,28 c 4.6575,0 9.0248,-0.18925 13.1562,-0.53125 -1.5174,3.6249 -3.0456,7.14264 -4.625,10.5625 l -22.5312,0 -6.125,24 15.875,0 c -15.5545,25.14795 -34.9711,43.2573 -62.25,56.96875 l 20.6562,-82.5625 8.8438,11.59375 c 14,-10 30,-25 37,-40 l -0.5938,-1 0.5938,0 -15,-24 -16.0625,0 c -1.6557,-1.84682 -3.7156,-4.00848 -5.9375,-6.28125 14.4367,-12.07001 34.3599,-32.25861 46,-49.71875 l -4,-24 -73.875,0 -6.125,24 42.875,0 c -8.2437,10.97016 -18.0408,21.52665 -26.2188,29.59375 -5.5611,-4.8597 -11.2814,-9.56262 -16.6562,-13.59375 l -20,15 c 11.4787,8.609 22.5217,17.30531 31.6875,25 l -35.5625,0 -6.125,24 29.1875,0 c -36.8942,15.08984 -51.3956,37.07672 -59.1875,56 -7,17 -8,45 0,65 l 34.4688,-12.9375 -9.4688,37.9375 35,0 5.7812,-23.15625 L 441,645.86218 c 32.1274,-27.64448 59.7777,-59.76048 77.9688,-93 l 10.0312,0 c 20,0 27,11.33334 27,21 0,10 -3.1318,17.51864 -17,30 -10,9 -29,11 -52,8 l -8,32 c 30,0 53.7387,-2.49847 68,-9 11.3342,-5.16709 21.0906,-10.0813 30,-23 8,-11.6 12,-23 12,-40 0,-14.5 -9,-43 -54,-43 l -4.6875,0 c 1.3283,-3.33571 2.5745,-6.66102 3.6875,-10 l -16.5625,-2.75 c 11.2153,-2.40046 20.3344,-6.28099 28.2813,-11.15625 13.997,13.09826 29.9664,20.875 48.4374,20.875 l 16.8438,-25 c -17.6266,0 -32.5709,-4.58711 -44.5938,-12.5 0.8622,-0.83758 1.7376,-1.64379 2.5938,-2.5 10.4657,-10.46567 20.2586,-26.78133 28.9062,-51 l 27.0938,0 6,-24 -76.4688,0 c 4.2424,-6.59632 8.1147,-13.29188 11.4688,-20 l -35,0 z m 6.0312,44 35.5,0 c -7.371,14.82909 -15.4495,26.72093 -24.7187,35.65625 -6.6273,-9.16075 -11.3163,-19.97526 -13.9375,-31.875 1.0626,-1.24827 2.114,-2.51045 3.1562,-3.78125 z M 194,443.86218 l -7.5,30 -40,0 -7.5,30 220,0 7.5,-30 -63.5625,0 31.0625,-30 -45,0 -31.0625,30 -31.4375,0 7.5,-30 -40,0 z m 256.5,54 8.75,0 c -4.2949,5.93717 -8.6933,11.32594 -12.75,15.9375 l 4,-15.9375 z m -40.4062,21.625 -19.9688,79.90625 c -11.4166,-15.13367 -12.4687,-36.9375 -6.125,-50.53125 5.0478,-10.81664 13.7005,-22.21695 26.0938,-29.375 z m -261.0938,4.375 -6,24 -24,96 40,0 60,0 c 30,0 48.571,-2.25198 65,-10 16.429,-7.74802 28.7189,-21.01546 35,-30 7,-10.01282 10,-20.01282 10,-40 0,-15 -15,-40 -60,-40 l -80,0 -39.875,0 -0.125,0 z m 34,24 80,0 c 20,0 24,11 24,21 0,15 -8,25 -18,35 -10,10 -25,16 -44,16 l -60,0 6.75,-27 87.25,0 6,-24 -87.25,0 5.25,-21 z"
       id="path3864"
       inkscape:export-xdpi="90"
       inkscape:export-ydpi="90" />
  </g>
</svg>
