<?xml version="1.0" encoding="UTF-8" standalone="no"?>
<!-- Created with Inkscape (http://www.inkscape.org/) -->

<svg
   xmlns:dc="http://purl.org/dc/elements/1.1/"
   xmlns:cc="http://creativecommons.org/ns#"
   xmlns:rdf="http://www.w3.org/1999/02/22-rdf-syntax-ns#"
   xmlns:svg="http://www.w3.org/2000/svg"
   xmlns="http://www.w3.org/2000/svg"
   version="1.1"
   width="280.9375"
   height="400.9375"
   id="svg3905">
  <defs
     id="defs3907" />
  <metadata
     id="metadata3910">
    <rdf:RDF>
      <cc:Work
         rdf:about="">
        <dc:format>image/svg+xml</dc:format>
        <dc:type
           rdf:resource="http://purl.org/dc/dcmitype/StillImage" />
        <dc:title></dc:title>
      </cc:Work>
    </rdf:RDF>
  </metadata>
  <g
     transform="translate(97.625,-163.3125)"
     id="layer1">
    <path
       d="m 153.88845,292.44697 c -3.0847,0.2473 -6.204,2.9372 -7.0313,6.3438 l -34,140 -143.000007,0 c -10,0 -14,7 -14,12 0,8 5,12 13,12 2.3177,0 4.8517,-0.2324 7.375,-0.5625 2.2225,17.7333 7.2175,27.155 16.6249997,36.5625 7.99999997,8 20.0000033,10 30.0000033,10 3,0 5,1 5,5 0,11.048 -1,18 -5,30 l 90.000004,0 c -2.5,-10 -5,-35 10,-60 10.6891,-17.8153 10,-30 10,-30 0,-5 2.7129,-11.5694 5,-15 14,-21 24,-45 27,-70 2.265,-18.875 1.9973,-33.1028 1,-50 -0.6906,-11.7011 -4.7678,-22.0958 -8,-25 -1.1623,-1.0443 -2.5666,-1.4561 -3.9687,-1.3438 z"
       id="path3801"
       style="fill:#20c040;fill-opacity:1;stroke:none" />
  </g>
</svg>
