<?xml version="1.0" encoding="UTF-8" standalone="no"?>
<!-- Created with Inkscape (http://www.inkscape.org/) -->

<svg
   xmlns:dc="http://purl.org/dc/elements/1.1/"
   xmlns:cc="http://creativecommons.org/ns#"
   xmlns:rdf="http://www.w3.org/1999/02/22-rdf-syntax-ns#"
   xmlns:svg="http://www.w3.org/2000/svg"
   xmlns="http://www.w3.org/2000/svg"
   version="1.1"
   width="280.9375"
   height="400.9375"
   id="svg3876">
  <defs
     id="defs3878" />
  <metadata
     id="metadata3881">
    <rdf:RDF>
      <cc:Work
         rdf:about="">
        <dc:format>image/svg+xml</dc:format>
        <dc:type
           rdf:resource="http://purl.org/dc/dcmitype/StillImage" />
        <dc:title></dc:title>
      </cc:Work>
    </rdf:RDF>
  </metadata>
  <g
     transform="translate(-353.8125,-174.75)"
     id="layer1">
    <path
       d="m 491.19202,196.21934 c -5,0 -10,5 -10,10 l 0,70 c 0,3 -2,5 -5,5 -3,0 -5,-2 -5,-5 l 0,-60 c 0,-5 -5,-10 -10,-10 l -5,0 c -5.00001,0 -10.00001,5 -10.00001,10 l 0,90 c 0,0 -14.4796,-15.3056 -25,-20 -14.8442,-6.6237 -25.0001,-5 -30.0001,0 -5,5 -5.8319,11.0015 0,15 11.1875,7.6704 29.495,23.2322 40.0001,35 9.4179,10.55 20,40 35.00001,50 l 70,0 c 0,0 5,-10 15,-20 15,-15 25,-30 25,-65 l 0,-65 c 0,-5 -5,-10 -10,-10 l -5,0 c -5,0 -10,5 -10,10 l 0,45 c 0,3 -2,5 -5,5 -3,0 -5,-2 -5,-5 l 0,-65 c 0,-5 -5,-10 -10,-10 l -5,0 c -5,0 -10,5 -10,10 l 0,60 c 0,3 -2,5 -5,5 -3,0 -5,-2 -5,-5 l 0,-70 c 0,-5 -5,-10 -10,-10 l -5,0 z m 6.9375,208.9688 c -4.7183,0.077 -9.4368,0.3813 -14.125,0.9374 -18.8781,2.2394 -32.62431,5.8677 -48.81251,10.8126 -11.2102,3.4241 -20.3753,9.8314 -22.4375,13.6562 -2.373,4.4011 2.3697,9.5 7.4687,9.5 l 129.06251,0.125 c 7,0 12,3 15,7 0,0 -5,3 -15,3 l -128.00001,0 c -10,0.001 -14,7 -14,12 0,8 5,12 13,12 2.3177,0 4.8517,-0.2324 7.375,-0.5625 2.2225,17.7333 7.2175,27.155 16.625,36.5625 8,8 20.00001,10 30.00001,10 3,0 5,1 5,5 0,11.048 -1,18 -5,30 l 90,0 c -2.5,-10 -5,-35 10,-60 10.6891,-17.8153 10,-30 10,-30 0,-10 5,-15 10,-15 l 0,-20 c -10,0 -21.262,-8.9702 -35.875,-14.3125 -19.2599,-7.0412 -39.8355,-11.054 -60.2812,-10.7187 z"
       id="path3820"
       style="fill:#ff6600;stroke:none" />
  </g>
</svg>
