<?xml version="1.0" encoding="UTF-8" standalone="no"?>
<!-- Created with Inkscape (http://www.inkscape.org/) -->

<svg
   xmlns:dc="http://purl.org/dc/elements/1.1/"
   xmlns:cc="http://creativecommons.org/ns#"
   xmlns:rdf="http://www.w3.org/1999/02/22-rdf-syntax-ns#"
   xmlns:svg="http://www.w3.org/2000/svg"
   xmlns="http://www.w3.org/2000/svg"
   version="1.1"
   width="280.93542"
   height="400.93542"
   id="svg3847">
  <defs
     id="defs3849" />
  <metadata
     id="metadata3852">
    <rdf:RDF>
      <cc:Work
         rdf:about="">
        <dc:format>image/svg+xml</dc:format>
        <dc:type
           rdf:resource="http://purl.org/dc/dcmitype/StillImage" />
        <dc:title></dc:title>
      </cc:Work>
    </rdf:RDF>
  </metadata>
  <g
     transform="translate(-299.53229,-166.1802)"
     id="layer1">
    <path
       d="m 410,176.64811 c -22.0914,0 -40,17.9085 -40,40 0,22.0913 17.9086,40 40,40 22.0914,0 40,-17.9087 40,-40 0,-22.0915 -17.9086,-40 -40,-40 z m 30,80 -62.6563,49.875 L 330,276.64811 c -9.25731,-5.8408 -19.11348,-1.8026 -23.75,4.8125 -4.87029,6.9486 -4.95087,19.1399 3.75,25.1875 l 58.9062,40.9375 c 3.5137,2.4422 7.9735,3.0646 12.5938,0.1563 l 33.5,-21.0938 c 3.3929,15.3571 5,40 5,60 l -80,0 c -20,0 -40,10 -40,30 0,36.0714 3.27617,70.3549 5,103.5625 0.98725,19.0182 8.55182,28.1173 23.09375,27.1875 15.34655,-0.9813 22.16915,-14.0425 21.40625,-26.4688 -0.1444,-2.3525 -4.5,-59.2812 -4.5,-79.2812 0,-4.7141 5.2859,-10 10,-10 l 90,0 c 20,0 30,-25 30,-45 0,-40 -5,-80 -15,-110 l -20,-20 z m 111.5625,38.625 c -0.1749,0 -0.356,0.017 -0.5313,0.031 -3.0846,0.2473 -6.2039,2.9372 -7.0312,6.3438 l -34,140 -143,0 c -10,0 -14,7 -14,12 0,8 5,12 13,12 2.3177,0 4.8517,-0.2324 7.375,-0.5625 2.2225,17.7333 7.2175,27.155 16.625,36.5625 8,8 20,10 30,10 3,0 5,1 5,5 0,11.048 -1,18 -5,30 l 90,0 c -2.5,-10 -5,-35 10,-60 10.6891,-17.8153 10,-30 10,-30 0,-5 2.7129,-11.5694 5,-15 14,-21 24,-45 27,-70 2.265,-18.875 1.9973,-33.1028 1,-50 -0.6906,-11.7011 -4.7678,-22.0958 -8,-25 -1.017,-0.9138 -2.2135,-1.3571 -3.4375,-1.375 z"
       id="path3794"
       style="fill:#ff0000;stroke:none" />
  </g>
</svg>
