<?xml version="1.0" encoding="UTF-8" standalone="no"?>
<!-- Created with Inkscape (http://www.inkscape.org/) -->

<svg
   xmlns:dc="http://purl.org/dc/elements/1.1/"
   xmlns:cc="http://creativecommons.org/ns#"
   xmlns:rdf="http://www.w3.org/1999/02/22-rdf-syntax-ns#"
   xmlns:svg="http://www.w3.org/2000/svg"
   xmlns="http://www.w3.org/2000/svg"
   version="1.1"
   width="1388.3809"
   height="170"
   id="svg3938">
  <defs
     id="defs3940" />
  <metadata
     id="metadata3943">
    <rdf:RDF>
      <cc:Work
         rdf:about="">
        <dc:format>image/svg+xml</dc:format>
        <dc:type
           rdf:resource="http://purl.org/dc/dcmitype/StillImage" />
        <dc:title></dc:title>
      </cc:Work>
    </rdf:RDF>
  </metadata>
  <g
     transform="translate(494.19043,-184.50504)"
     id="layer1">
    <path
       d="m -314.19043,184.50504 c -40,0 -62,30 -65,60 -2,20 -2,30 0,50 3,30 25,60 65,60 40,0 62,-30 65,-60 2,-20 2,-30 0,-50 -3,-30 -25,-60 -65,-60 z m 255.000001,4.96875 c -3.00003,0 -5,1.98718 -5,5 l 0,150 c 0,2.98718 1.99997,5.00194 5,5 25.87672,-0.0167 52.9934795,0.0921 80,0 3.00001,-0.0102 5,-2.01282 5,-5 l 0,-14.96875 c 0,-3.01282 -2,-5 -5,-5 l -55,0 0,-50.03125 c 15.81104,0.009 44.87184,0.0219 50,0 3,-0.0128 5,-2.01282 5,-5 l 0,-14.96875 c 0,-3.01282 -2,-5 -5,-5 l -50,0 0,-35.03125 c 20.56954,0.008 50.41671,0.0196 55,0 3,-0.0128 5,-2.01282 5,-5 l 0,-14.96875 c 0,-3.01282 -2,-5.00373 -5,-5 -26.6795805,0.0331 -53.34556,-0.0312 -80,-0.0312 z m -430.000001,0.0312 c -3.00003,0 -5,1.98718 -5,5 l 0,14.96875 c 0,2.98718 2,4.98718 5,5 0.82495,0.004 19.87764,-0.003 35,0 l 0,130.0313 c 0,2.98718 2,4.98718 5,5 2.357,0.0101 13.33339,0.0285 20,0 3,-0.0128 5,-2.01282 5,-5 l 0,-130.03125 c 15.57487,-8.5e-4 32.66669,0.01 35,0 3,-0.0128 5,-2.01282 5,-5 l 0,-14.96875 c 0,-3.01282 -2,-5 -5,-5 l -100,0 z m 265,0 c -3.00003,0 -5,1.98718 -5,5 l 0,150 c 0,2.98718 2,4.98718 5,5 2.357,0.0101 13.33339,0.0285 20,0 3,-0.0128 5,-2.01282 5,-5 l 0,-150 c 0,-3.01282 -2,-5 -5,-5 l -20,0 z m 60,0 c -3.00003,0 -5,1.98718 -5,5 l 0,150 c 0,2.98718 1.99997,5.00117 5,5 l 80.000001,-0.0312 c 3.00003,-0.001 5,-2.01282 5,-5 l 0,-14.96875 c 0,-3.01282 -2,-5 -5,-5 -5.2381,0 -36.533041,-0.004 -55.000001,0 l 0,-130 c 0,-3.01282 -2,-5 -5,-5 l -20,0 z m 210.000001,0 c -3.00003,0 -5,1.98718 -5,5 l 0,14.96875 c 0,2.98718 2,4.98718 5,5 0.82495,0.004 19.87764,-0.003 35,0 l 0,130.03125 c 0,2.98718 2,4.98718 5,5 2.357,0.0101 13.33339,0.0285 19.999999,0 3,-0.0128 5,-2.01282 5,-5 l 0,-130.03125 c 15.57487,-8.5e-4 32.66669,0.01 35,0 3,-0.0128 5,-2.01282 5,-5 l 0,-14.96875 c 0,-3.01282 -2,-5 -5,-5 l -99.999999,0 z m 279.999999,0 c -3.00003,0 -5,1.98718 -5,5 l 0,150 c 0,2.98718 1.99997,5.00194 5,5 25.87672,-0.0167 52.99348,0.0921 80,0 3.00001,-0.0102 5,-2.01282 5,-5 l 0,-14.96875 c 0,-3.01282 -2,-5 -5,-5 l -55,0 0,-50.03125 c 15.81104,0.009 44.87184,0.0219 50,0 3,-0.0128 5,-2.01282 5,-5 l 0,-14.96875 c 0,-3.01282 -2,-5 -5,-5 l -50,0 0,-35.03125 c 20.56954,0.008 50.41671,0.0196 55,0 3,-0.0128 5,-2.01282 5,-5 l 0,-14.96875 c 0,-3.01282 -2,-5.00373 -5,-5 -26.67958,0.0331 -53.34556,-0.0312 -80,-0.0312 z m 340,0 c -3,0 -5,1.98718 -5,5 l 0,150 c 0,2.98718 2,5.00194 5,5 25.8767,-0.0167 52.9935,0.0921 80,0 3,-0.0102 5,-2.01282 5,-5 l 0,-14.96875 c 0,-3.01282 -2,-5 -5,-5 l -55,0 0,-50.03125 c 15.811,0.009 44.8718,0.0219 50,0 3,-0.0128 5,-2.01282 5,-5 l 0,-14.96875 c 0,-3.01282 -2,-5 -5,-5 l -50,0 0,-35.03125 c 20.5695,0.008 50.4167,0.0196 55,0 3,-0.0128 5,-2.01282 5,-5 l 0,-14.96875 c 0,-3.01282 -2,-5.00373 -5,-5 -26.6796,0.0331 -53.3456,-0.0312 -80,-0.0312 z m 110,0 c -3,0 -5,1.98718 -5,5 l 0,150 c 0,2.98718 2,4.98718 5,5 2.357,0.0101 13.3334,0.0285 20,0 3,-0.0128 5,-2.01282 5,-5 l 0,-70.03125 c 3.6237,3e-4 6.5536,9.3e-4 10.0312,0 l -0.0312,0.0313 c 10,0 15,5 20,15 3.5429,7.08586 17.4963,34.74422 27.4062,54.78125 1.5578,3.14963 3.5938,5.21875 7.5938,5.21875 l 25,0 c 4,0 3.9863,-2.02716 2.3438,-5.3125 l -27.3438,-54.6875 c -4.194,-8.388 -10.1446,-15.03618 -16.75,-19.90625 14.4871,-7.07565 21.75,-21.11075 21.75,-37.09375 0,-23 -15,-43.00003 -45,-43 l -50,0 z m -565,0.0312 c -3.00003,0 -5,1.98718 -5,5 l 0,150 c 0,2.98718 2,4.98718 5,5 2.357,0.0101 13.33339,0.0285 20,0 3,-0.0128 5,-2.01282 5,-5 l 0,-65.03125 c 9.03095,7.6e-4 17.97679,-0.007 25,0 25.00001,0.0236 45,-19.9687 45,-44.96875 0,-25 -20,-45 -45,-45 l -50,0 z m 225,0 c -3.00003,0 -5,1.98718 -5,5 l 0,150 c 0,2.98718 2,4.98718 5,5 2.357,0.0101 13.33339,0.0285 20,0 3,-0.0128 5,-2.01282 5,-5 l 0,-65.03125 c 9.03095,7.6e-4 17.97679,-0.007 25,0 25,0.0236 45,-19.9687 45,-44.96875 0,-25 -20,-45 -45,-45 l -50,0 z m 115,0 c -3,0 -5,1.98718 -5,5 l 0,150 c 0,2.98718 2,4.98718 5,5 2.357,0.0101 13.3334,0.0285 20,0 3,-0.0128 5,-2.01282 5,-5 l 0,-65.03125 c 9.0309,7.6e-4 17.9768,-0.007 25,0 25,0.0236 45,-19.9687 45,-44.96875 0,-25 -20,-45 -45,-45 l -50,0 z m -865,19.96885 c 19.32997,0 33,15 35,35 2,20 2,30 0,50 -2,20 -15.67003,35 -35,35 -19.32997,0 -33,-15 -35,-35 -2,-20 -2,-30 0,-50 2.01234,-20.12338 15.67003,-35 35,-35 z m 1115,4.96875 c 9.0309,7.6e-4 12.9768,3e-4 20,0 15,-6.8e-4 20,10.03125 20,18.03125 0,8 -5,16.95915 -20,16.96875 l -20,0.0312 0,-35.03125 z m -565,0.0312 c 9.03095,7.6e-4 12.97679,3e-4 20,0 15,-6.8e-4 20,10.01843 20,20.03125 0,9.98718 -5,19.95914 -20,19.96875 l -20,0.0312 0,-40.03125 z m 225,0 c 9.03095,7.6e-4 12.97679,3e-4 20,0 15,-6.8e-4 20,10.01843 20,20.03125 0,9.98718 -5,19.95914 -20,19.96875 l -20,0.0312 0,-40.03125 z m 115,0 c 9.0309,7.6e-4 12.9768,3e-4 20,0 15,-6.8e-4 20,10.01843 20,20.03125 0,9.98718 -5,19.95914 -20,19.96875 l -20,0.0312 0,-40.03125 z"
       id="path3900"
       style="opacity:0.93999999;fill:#ff0000;fill-opacity:1;stroke:none" />
  </g>
</svg>
