<?xml version="1.0" encoding="UTF-8" standalone="no"?>
<!-- Created with Inkscape (http://www.inkscape.org/) -->

<svg
   xmlns:dc="http://purl.org/dc/elements/1.1/"
   xmlns:cc="http://creativecommons.org/ns#"
   xmlns:rdf="http://www.w3.org/1999/02/22-rdf-syntax-ns#"
   xmlns:svg="http://www.w3.org/2000/svg"
   xmlns="http://www.w3.org/2000/svg"
   version="1.1"
   width="1251.2814"
   height="141.81203"
   id="svg3986">
  <defs
     id="defs3988" />
  <metadata
     id="metadata3991">
    <rdf:RDF>
      <cc:Work
         rdf:about="">
        <dc:format>image/svg+xml</dc:format>
        <dc:type
           rdf:resource="http://purl.org/dc/dcmitype/StillImage" />
        <dc:title></dc:title>
      </cc:Work>
    </rdf:RDF>
  </metadata>
  <g
     transform="translate(-134.35935,-475.74188)"
     id="layer1">
    <path
       d="m 879.7656,475.742 c -1.26578,0.01 -2.59432,0.6212 -4.09375,1.8125 l -60.25,47.875 c -3.56581,2.83304 -4.78125,5.09972 -4.78125,8.65625 l 0,29.6875 c 0,3.4928 1.7915,4.46172 4.96875,1.9375 l 58.75,-46.6875 71.71875,96.625 c 2.22419,2.99631 4.5625,2.29834 4.5625,-0.96875 l 0,-40.3125 c 0,-3.55654 -1.40541,-6.64651 -4.03125,-10.25 L 884.4531,478.83575 c -1.54053,-2.11411 -3.06006,-3.10636 -4.6875,-3.09375 z m -740.40625,1.78125 c -3,-0.002 -5,2 -5,5 l 0,129.96875 c 0,3.00459 2,5.03125 5,5.03125 l 20,0 c 3,0 5,-2 5,-5 l 0,-50 75,0 c 3,0 5,-2 5,-5 l 0,-20 c 0,-3 -2,-5 -5,-5 l -75,0 0,-50 c 0,-3 -2.00002,-4.99847 -5,-5 l -20,0 z m 280,0 c -3,0 -5,2 -5,5 l 0,130 c 0,3 2,4.99846 5,5 l 20,0 c 3,0 6.38279,-0.84862 9.875,-3.03125 l 70.34375,-43.96875 c 2.92726,-1.82954 4.78125,-5 4.78125,-8 l 0,-25 c 0,-3 -1.51734,-4.03995 -5.03125,-1.84375 l -74.96875,46.84375 0,-100 c 0,-3 -2,-5 -5,-5 l -20,0 z m 265,0 c -3,-0.002 -5,2 -5,5 l 0,129.96875 c 0,3.00459 2,5.03125 5,5.03125 l 20,0 c 3,0 5,-2 5,-5 l 0,-50 75,0 c 3,0 5,-2 5,-5 l 0,-20 c 0,-3 -2,-5 -5,-5 l -75,0 0,-50 c 0,-3 -2.00002,-4.99847 -5,-5 l -20,0 z m 245.25,0 c -10.56739,0.53566 -18.96875,9.29949 -18.96875,20 0,11.0457 8.95431,20 20,20 11.04569,0 20,-8.9543 20,-20 0,-11.04569 -8.95431,-20 -20,-20 -0.34518,0 -0.69037,-0.0173 -1.03125,0 z m 320.00005,0 c -10.5674,0.53566 -18.9687,9.29949 -18.9687,20 0,11.0457 8.9543,20 20,20 11.0456,0 20,-8.9543 20,-20 0,-11.04569 -8.9544,-20 -20,-20 -0.3452,0 -0.6904,-0.0173 -1.0313,0 z m -867.6563,1.75 c -0.69149,-0.0126 -1.5072,0.22235 -2.4375,0.6875 L 268.92185,535.242 c -2.90674,1.45337 -4.5625,4.28125 -4.5625,7.28125 l 0,25 c 0,3 2.57194,3.71403 5.125,2.4375 l 44.875,-22.4375 0,65 c 0,3 2,5 5,5 l 20,0 c 3,0 5,-2 5,-5 l 0,-80 35,-17.5 c 3.01787,-1.50894 5,-4.5 5,-7.5 l 0,-25 c 0,-2.0625 -0.88497,-3.22219 -2.40625,-3.25 z m 809.1876,3.15625 c -3,0 -4.6317,1.25499 -3.5313,4.96875 l 37.0625,125.03125 c 1.0201,3.44308 3.4688,5 6.4688,5 l 23,0 c 3,0 4.468,-1.75244 3.4687,-5.125 l -36.9687,-124.78125 c -1.1627,-3.92399 -3.5,-5.09375 -6.5,-5.09375 l -23,0 z m -55.5001,0.0937 c -3,0 -5.3373,1.13851 -6.5,5.0625 l -36.9687,124.7813 c -0.9993,3.37256 0.4687,5.15625 3.4687,5.15625 l 23,0 c 3,0 5.4486,-1.55692 6.4688,-5 L 1162.1719,487.492 c 1.1004,-3.71376 -0.5312,-4.96875 -3.5312,-4.96875 l -23.0001,0 z m -591.28125,50.00005 c -3,0 -5,1.98718 -5,5 l 0,20 c 0,2.98718 2,5 5,5 l 20,0 c 3,0 5,-2.01282 5,-5 l 0,-20 c 0,-3.01282 -1.99997,-5 -5,-5 l -20,0 z m 45,0 c -3,0 -5,1.98718 -5,5 l 0,20 c 0,2.98718 2,5 5,5 l 20,0 c 3,0 5,-2.01282 5,-5 l 0,-20 c 0,-3.01282 -1.99997,-5 -5,-5 l -20,0 z m 45,0 c -3,0.002 -5,1.98718 -5,5 l 0,55 -55,0 c -3,-7e-4 -5,1.98718 -5,5 l 0,15 c 0,2.98718 2,5 5,5 l 75,0 c 3.04442,0 5.03125,-2.03125 5.03125,-5.03125 l 0,-74.96875 c 0,-3.01282 -1.99997,-5.00239 -5,-5 l -15.03125,0 z m 331.28125,0 c -3,0 -5,1.98718 -5,5 l 0,20 c 0,2.98718 2,5 5,5 l 20,0 c 3,0 5,-2.01282 5,-5 l 0,-20 c 0,-3.01282 -1.99997,-5 -5,-5 l -20,0 z m 45,0 c -3,0 -5,1.98718 -5,5 l 0,20 c 0,2.98718 2,5 5,5 l 20,0 c 3,0 5,-2.01282 5,-5 l 0,-20 c 0,-3.01282 -2,-5 -5,-5 l -20,0 z m 45,0 c -3,0.002 -5,1.98718 -5,5 l 0,55 -55,0 c -3,-7e-4 -5,1.98718 -5,5 l 0,15 c 0,2.98718 2,5 5,5 l 75,0 c 3.0444,0 5.0313,-2.03125 5.0313,-5.03125 l 0,-74.96875 c 0,-3.01282 -2,-5.00239 -5,-5 l -15.0313,0 z m 215.0001,0 c -3,0 -5,1.98718 -5,5 l 0,20 c 0,2.98718 2,5 5,5 l 110,0 c 3,0 5,-2.01282 5,-5 l 0,-20 c 0,-3.01282 -2,-5 -5,-5 l -110,0 z"
       id="path3940"
       style="opacity:0.6;fill:#ff0000;fill-opacity:1;stroke:none;display:inline" />
  </g>
</svg>
